<?xml version="1.0" encoding="utf-8"?>
<svg width="70.56003px" height="84px" viewBox="0 0 70.56003 84" version="1.1" xmlns:xlink="http://www.w3.org/1999/xlink" xmlns="http://www.w3.org/2000/svg">
  <path d="M35.28 0C31.5853 0 28.56 3.02531 28.56 6.72C28.56 7.58625 28.7306 8.42625 29.0325 9.1875C19.5825 11.6419 13.44 19.8516 13.44 30.24C13.44 43.3978 10.2112 49.3894 7.14 52.7625C5.60438 54.4491 4.08844 55.4728 2.7825 56.4375C2.12625 56.9166 1.52906 57.3956 0.9975 58.0125C0.465938 58.6294 0 59.5088 0 60.48C0 62.79 1.4175 64.7522 3.4125 66.045C5.4075 67.3378 8.02594 68.1712 11.1825 68.8275C15.2775 69.6741 20.3306 70.1203 25.8825 70.35C25.4625 71.4656 25.2 72.6666 25.2 73.92C25.2 79.4653 29.7347 84 35.28 84C40.8253 84 45.36 79.4653 45.36 73.92C45.36 72.66 45.1041 71.4591 44.6775 70.35C50.2294 70.1203 55.2825 69.6741 59.3775 68.8275C62.5341 68.1712 65.1525 67.3378 67.1475 66.045C69.1425 64.7522 70.56 62.79 70.56 60.48C70.56 59.5088 70.0941 58.6294 69.5625 58.0125C69.0309 57.3956 68.4337 56.9166 67.7775 56.4375C66.4716 55.4728 64.9556 54.4491 63.42 52.7625C60.3487 49.3894 57.12 43.3978 57.12 30.24C57.12 19.8581 50.9644 11.655 41.5275 9.1875C41.8294 8.42625 42 7.58625 42 6.72C42 3.02531 38.9747 0 35.28 0L35.28 0ZM35.28 3.36001C37.1569 3.36001 38.64 4.84313 38.64 6.72001C38.64 8.59688 37.1569 10.08 35.28 10.08C33.4031 10.08 31.92 8.59688 31.92 6.72001C31.92 4.84313 33.4031 3.36001 35.28 3.36001L35.28 3.36001ZM39.2175 12.075C48.1753 13.6697 53.76 20.5931 53.76 30.24C53.76 43.9622 57.2513 51.0103 60.9 55.02C62.7244 57.0216 64.5684 58.275 65.7825 59.1675C66.3862 59.6137 66.8391 59.9878 67.0425 60.2175C67.2459 60.4472 67.2 60.4275 67.2 60.48C67.2 61.53 66.7144 62.2978 65.31 63.21C63.9056 64.1222 61.6219 64.9688 58.695 65.5725C52.8413 66.7866 44.5069 67.2 35.28 67.2C26.0531 67.2 17.7187 66.7866 11.865 65.5725C8.93812 64.9688 6.65437 64.1222 5.25 63.21C3.84562 62.2978 3.36 61.53 3.36 60.48C3.36 60.4275 3.31406 60.4472 3.5175 60.2175C3.72094 59.9878 4.17375 59.6137 4.7775 59.1675C5.99156 58.275 7.83563 57.0216 9.66 55.02C13.3087 51.0103 16.8 43.9622 16.8 30.24C16.8 20.5997 22.3912 13.7288 31.3425 12.1275C32.4581 12.9478 33.8034 13.44 35.28 13.44C36.7697 13.44 38.1019 12.9084 39.2175 12.075L39.2175 12.075ZM29.505 70.455C31.3884 70.4944 33.3047 70.56 35.28 70.56C37.2553 70.56 39.1716 70.4944 41.055 70.455C41.6522 71.4656 42 72.66 42 73.92C42 77.654 39.0141 80.64 35.28 80.64C31.5459 80.64 28.56 77.654 28.56 73.92C28.56 72.6469 28.8947 71.4656 29.505 70.455L29.505 70.455Z" 
  id="Фигура" fill="#FFFFFF" fill-rule="evenodd" stroke="none" />
</svg>