<svg width="24" height="24" viewBox="0 0 24 24" fill="none" xmlns="http://www.w3.org/2000/svg">
<path d="M12.0002 0.333344C5.56016 0.333344 0.333496 5.56001 0.333496 12C0.333496 18.44 5.56016 23.6667 12.0002 23.6667C18.4402 23.6667 23.6668 18.44 23.6668 12C23.6668 5.56001 18.4402 0.333344 12.0002 0.333344ZM17.4135 8.26668C17.2385 10.11 16.4802 14.59 16.0952 16.655C15.9318 17.53 15.6052 17.8217 15.3018 17.8567C14.6252 17.915 14.1118 17.4133 13.4585 16.9817C12.4318 16.305 11.8485 15.885 10.8568 15.2317C9.70183 14.4733 10.4485 14.0533 11.1135 13.3767C11.2885 13.2017 14.2752 10.4833 14.3335 10.2383C14.3416 10.2012 14.3405 10.1627 14.3304 10.1261C14.3202 10.0895 14.3012 10.056 14.2752 10.0283C14.2052 9.97001 14.1118 9.99334 14.0302 10.005C13.9252 10.0283 12.2918 11.1133 9.10683 13.26C8.64016 13.575 8.22016 13.7383 7.84683 13.7267C7.42683 13.715 6.6335 13.4933 6.0385 13.295C5.3035 13.0617 4.73183 12.9333 4.7785 12.525C4.80183 12.315 5.0935 12.105 5.64183 11.8833C9.0485 10.4017 11.3118 9.42168 12.4435 8.95501C15.6868 7.60168 16.3518 7.36834 16.7952 7.36834C16.8885 7.36834 17.1102 7.39168 17.2502 7.50834C17.3668 7.60168 17.4018 7.73001 17.4135 7.82334C17.4018 7.89334 17.4252 8.10334 17.4135 8.26668Z" fill="#0065F2"/>
</svg>
