<svg width="24" height="24" viewBox="0 0 24 24" fill="none" xmlns="http://www.w3.org/2000/svg">
<path d="M15.5853 0.333344H8.42666C1.88866 0.333344 0.333496 1.88851 0.333496 8.41484V15.5735C0.333496 22.1103 1.877 23.6667 8.415 23.6667H15.5737C22.1105 23.6667 23.6668 22.1232 23.6668 15.5852V8.42651C23.6668 1.88851 22.1233 0.333344 15.5853 0.333344ZM19.1705 16.9817H17.4683C16.8243 16.9817 16.6307 16.4602 15.4757 15.3052C14.4677 14.3333 14.0418 14.212 13.7863 14.212C13.434 14.212 13.3372 14.3088 13.3372 14.7953V16.326C13.3372 16.7402 13.203 16.9828 12.1215 16.9828C11.0719 16.9123 10.0541 16.5934 9.15186 16.0525C8.24965 15.5115 7.48886 14.7639 6.93216 13.8713C5.61053 12.2263 4.69093 10.2957 4.2465 8.23284C4.2465 7.97734 4.34333 7.74634 4.82983 7.74634H6.53083C6.96833 7.74634 7.12583 7.94118 7.29733 8.39034C8.12333 10.8217 9.53266 12.9357 10.1043 12.9357C10.3237 12.9357 10.4193 12.8388 10.4193 12.2917V9.78801C10.347 8.64584 9.74033 8.54901 9.74033 8.13601C9.74812 8.02708 9.79804 7.92546 9.8795 7.85272C9.96096 7.77997 10.0675 7.74182 10.1767 7.74634H12.8507C13.2158 7.74634 13.3372 7.92834 13.3372 8.36584V11.7445C13.3372 12.1097 13.4947 12.231 13.6043 12.231C13.8237 12.231 13.9928 12.1097 14.3942 11.7083C15.2562 10.6571 15.9605 9.48593 16.4848 8.23168C16.5384 8.08102 16.6398 7.95203 16.7736 7.8644C16.9074 7.77677 17.0661 7.73531 17.2257 7.74634H18.9278C19.4377 7.74634 19.5462 8.00184 19.4377 8.36584C18.8187 9.75235 18.0529 11.0685 17.1533 12.2917C16.9702 12.5717 16.8967 12.7175 17.1533 13.0453C17.3225 13.3008 17.9187 13.799 18.32 14.2727C18.9032 14.8544 19.3875 15.5275 19.7538 16.2653C19.8997 16.739 19.6558 16.9817 19.1705 16.9817Z" fill="#0065F2"/>
</svg>
